<svg width="200" height="120" viewBox="0 0 200 120" xmlns="http://www.w3.org/2000/svg">
  <defs>
    <linearGradient id="carGradient" x1="0%" y1="0%" x2="0%" y2="100%">
      <stop offset="0%" style="stop-color:#4a90e2;stop-opacity:1" />
      <stop offset="100%" style="stop-color:#2e5a8a;stop-opacity:1" />
    </linearGradient>
  </defs>
  
  <!-- Car body -->
  <path d="M20 80 L30 60 L50 50 L150 50 L170 60 L180 80 L180 90 L20 90 Z" fill="url(#carGradient)" stroke="#1a1a1a" stroke-width="1"/>
  
  <!-- Car windows -->
  <path d="M35 60 L45 52 L155 52 L165 60 L155 65 L45 65 Z" fill="#87ceeb" stroke="#1a1a1a" stroke-width="1"/>
  
  <!-- Wheels -->
  <circle cx="45" cy="90" r="12" fill="#2c3e50" stroke="#1a1a1a" stroke-width="2"/>
  <circle cx="155" cy="90" r="12" fill="#2c3e50" stroke="#1a1a1a" stroke-width="2"/>
  
  <!-- Wheel centers -->
  <circle cx="45" cy="90" r="6" fill="#95a5a6"/>
  <circle cx="155" cy="90" r="6" fill="#95a5a6"/>
  
  <!-- Headlights -->
  <ellipse cx="175" cy="70" rx="4" ry="6" fill="#f1c40f"/>
  
  <!-- Grille -->
  <rect x="170" y="65" width="8" height="10" fill="#1a1a1a"/>
  
  <!-- Door lines -->
  <line x1="100" y1="52" x2="100" y2="80" stroke="#1a1a1a" stroke-width="1"/>
  
  <text x="100" y="110" text-anchor="middle" font-family="Arial, sans-serif" font-size="12" fill="#666">Vehicle</text>
</svg> 