<svg width="200" height="120" viewBox="0 0 200 120" xmlns="http://www.w3.org/2000/svg">
  <defs>
    <linearGradient id="sedanGradient" x1="0%" y1="0%" x2="0%" y2="100%">
      <stop offset="0%" style="stop-color:#3498db;stop-opacity:1" />
      <stop offset="100%" style="stop-color:#2980b9;stop-opacity:1" />
    </linearGradient>
  </defs>
  
  <!-- Sedan body (longer and lower) -->
  <path d="M15 85 L25 65 L45 55 L155 55 L175 65 L185 85 L185 92 L15 92 Z" fill="url(#sedanGradient)" stroke="#1a1a1a" stroke-width="1"/>
  
  <!-- Sedan windows -->
  <path d="M30 65 L40 57 L90 57 L95 60 L95 67 L40 67 Z" fill="#87ceeb" stroke="#1a1a1a" stroke-width="1"/>
  <path d="M105 60 L110 57 L160 57 L170 65 L160 67 L110 67 Z" fill="#87ceeb" stroke="#1a1a1a" stroke-width="1"/>
  
  <!-- Trunk -->
  <path d="M155 55 L175 55 L180 60 L175 65 L155 65 Z" fill="url(#sedanGradient)" stroke="#1a1a1a" stroke-width="1"/>
  
  <!-- Wheels -->
  <circle cx="40" cy="92" r="12" fill="#2c3e50" stroke="#1a1a1a" stroke-width="2"/>
  <circle cx="160" cy="92" r="12" fill="#2c3e50" stroke="#1a1a1a" stroke-width="2"/>
  
  <!-- Wheel centers -->
  <circle cx="40" cy="92" r="6" fill="#95a5a6"/>
  <circle cx="160" cy="92" r="6" fill="#95a5a6"/>
  
  <!-- Headlights -->
  <ellipse cx="180" cy="75" rx="4" ry="6" fill="#f1c40f"/>
  
  <text x="100" y="115" text-anchor="middle" font-family="Arial, sans-serif" font-size="12" fill="#666">Sedan</text>
</svg> 