<svg width="200" height="120" viewBox="0 0 200 120" xmlns="http://www.w3.org/2000/svg">
  <defs>
    <linearGradient id="suvGradient" x1="0%" y1="0%" x2="0%" y2="100%">
      <stop offset="0%" style="stop-color:#e74c3c;stop-opacity:1" />
      <stop offset="100%" style="stop-color:#c0392b;stop-opacity:1" />
    </linearGradient>
  </defs>
  
  <!-- SUV body (taller and more rectangular) -->
  <path d="M20 75 L25 45 L40 35 L160 35 L175 45 L180 75 L180 88 L20 88 Z" fill="url(#suvGradient)" stroke="#1a1a1a" stroke-width="1"/>
  
  <!-- SUV windows -->
  <path d="M30 45 L35 37 L165 37 L170 45 L165 50 L35 50 Z" fill="#87ceeb" stroke="#1a1a1a" stroke-width="1"/>
  
  <!-- Side windows -->
  <rect x="30" y="50" width="65" height="25" fill="#87ceeb" stroke="#1a1a1a" stroke-width="1"/>
  <rect x="105" y="50" width="65" height="25" fill="#87ceeb" stroke="#1a1a1a" stroke-width="1"/>
  
  <!-- Wheels (larger for SUV) -->
  <circle cx="45" cy="88" r="14" fill="#2c3e50" stroke="#1a1a1a" stroke-width="2"/>
  <circle cx="155" cy="88" r="14" fill="#2c3e50" stroke="#1a1a1a" stroke-width="2"/>
  
  <!-- Wheel centers -->
  <circle cx="45" cy="88" r="7" fill="#95a5a6"/>
  <circle cx="155" cy="88" r="7" fill="#95a5a6"/>
  
  <!-- Headlights -->
  <ellipse cx="175" cy="65" rx="4" ry="8" fill="#f1c40f"/>
  
  <!-- Roof rails -->
  <line x1="35" y1="37" x2="165" y2="37" stroke="#1a1a1a" stroke-width="2"/>
  
  <text x="100" y="115" text-anchor="middle" font-family="Arial, sans-serif" font-size="12" fill="#666">SUV</text>
</svg> 