<svg width="425" height="578" viewBox="0 0 425 578" fill="none" xmlns="http://www.w3.org/2000/svg">
<g clip-path="url(#clip0_1100_21)">
<path d="M207.751 455.008C198.04 455.008 188.254 454.233 178.655 452.707C176.304 452.335 174.529 450.378 174.384 448.006L173.137 427.748C167.379 426.482 161.678 424.895 156.106 423.006L144.525 439.694C143.553 441.095 141.975 441.877 140.349 441.88C139.709 441.88 139.062 441.759 138.439 441.505C125.865 436.398 113.82 429.859 102.639 422.072C100.692 420.715 99.9429 418.187 100.841 415.991L108.516 397.191C106.189 395.363 103.916 393.471 101.725 391.546C99.5331 389.62 97.3653 387.61 95.2517 385.539L77.5738 395.553C76.788 395.996 75.9243 396.213 75.0707 396.213C73.6752 396.213 72.2966 395.637 71.3075 394.548C62.1451 384.466 54.114 373.369 47.4345 361.561C46.2625 359.493 46.6859 356.89 48.4506 355.296L63.5305 341.685C60.9427 336.405 58.6394 330.96 56.6443 325.416L36.3786 326.774C36.2635 326.78 36.1483 326.784 36.0365 326.784C33.7976 326.784 31.8059 325.311 31.1657 323.142C27.3212 310.099 24.9231 296.616 24.0323 283.072C23.8764 280.7 25.3871 278.54 27.6701 277.87L47.1703 272.144C47.1262 266.245 47.404 260.343 48.0001 254.515L29.1436 246.951C26.9385 246.068 25.6412 243.773 26.0206 241.428C28.1985 227.999 31.877 214.807 36.9578 202.218C37.7437 200.275 39.6236 199.04 41.6661 199.04C41.9404 199.04 42.2148 199.063 42.4925 199.107L62.5414 202.4C65.0547 197.1 67.883 191.906 70.9857 186.88L57.2912 171.898C55.6857 170.141 55.5163 167.508 56.8814 165.559C60.8038 159.971 65.0412 154.58 69.4818 149.534C73.919 144.491 78.7289 139.601 83.7724 134.995C84.7378 134.115 85.964 133.668 87.2003 133.668C88.2164 133.668 89.236 133.973 90.1167 134.589L106.741 146.241C111.331 142.522 116.124 139.056 121.066 135.885L115.229 116.439C114.545 114.161 115.534 111.718 117.607 110.554C129.452 103.907 142.076 98.5732 155.127 94.6947C155.608 94.5526 156.096 94.4849 156.577 94.4849C158.379 94.4849 160.093 95.4461 161.011 97.0841L170.935 114.801C176.643 113.464 182.465 112.435 188.329 111.721L191.516 91.6658C191.889 89.3205 193.84 87.5437 196.214 87.3948C200.055 87.1545 203.954 87.0293 207.805 87.0293C217.513 87.0293 227.302 87.8043 236.901 89.3306C239.252 89.7029 241.027 91.659 241.173 94.0314L242.419 114.286C248.177 115.552 253.878 117.139 259.45 119.028L271.031 102.34C272.003 100.939 273.581 100.157 275.207 100.157C275.847 100.157 276.498 100.279 277.118 100.533C289.694 105.64 301.739 112.178 312.917 119.965C314.865 121.322 315.613 123.851 314.716 126.047L307.04 144.847C309.367 146.674 311.64 148.566 313.832 150.492C316.023 152.417 318.191 154.428 320.304 156.499L337.982 146.485C338.768 146.041 339.632 145.825 340.485 145.825C341.881 145.825 343.26 146.4 344.249 147.49C353.411 157.572 361.442 168.669 368.122 180.477C369.294 182.545 368.87 185.147 367.105 186.741L352.026 200.353C354.613 205.632 356.917 211.078 358.912 216.621L379.177 215.264C379.293 215.257 379.408 215.254 379.52 215.254C381.759 215.254 383.75 216.726 384.39 218.895C388.231 231.938 390.633 245.422 391.524 258.966C391.68 261.338 390.169 263.497 387.886 264.167L368.386 269.893C368.43 275.792 368.152 281.695 367.556 287.522L386.413 295.086C388.618 295.97 389.915 298.264 389.536 300.609C387.358 314.038 383.679 327.23 378.598 339.82C377.812 341.763 375.933 342.998 373.89 342.998C373.616 342.998 373.341 342.974 373.064 342.93L353.015 339.637C350.501 344.937 347.673 350.132 344.57 355.154L358.265 370.137C359.87 371.893 360.04 374.526 358.675 376.475C354.752 382.063 350.512 387.454 346.074 392.5C341.637 397.543 336.827 402.433 331.784 407.036C330.818 407.916 329.592 408.362 328.356 408.362C327.34 408.362 326.32 408.058 325.439 407.442L308.815 395.79C304.225 399.509 299.432 402.974 294.491 406.146L300.327 425.592C301.011 427.869 300.022 430.313 297.949 431.477C286.104 438.124 273.48 443.458 260.429 447.336C259.948 447.478 259.46 447.546 258.979 447.546C257.177 447.546 255.463 446.585 254.545 444.947L244.621 427.23C238.913 428.567 233.091 429.595 227.227 430.31L224.04 450.365C223.667 452.71 221.716 454.487 219.342 454.636C215.501 454.876 211.599 455.001 207.748 455.001L207.751 455.008Z" fill="#1E2020"/>
<path d="M207.805 92.1158C217.259 92.1158 226.723 92.8603 236.102 94.3528L237.589 118.483C245.651 120.046 253.621 122.256 261.418 125.116L275.207 105.244C287.293 110.151 298.972 116.446 310.014 124.138L300.876 146.522C304.151 148.972 307.355 151.565 310.482 154.309C313.608 157.054 316.592 159.9 319.444 162.831L340.492 150.908C349.543 160.865 357.286 171.633 363.705 182.978L345.746 199.185C349.584 206.546 352.795 214.161 355.383 221.948L379.523 220.33C383.273 233.052 385.593 246.129 386.46 259.3L363.238 266.12C363.498 274.347 363.119 282.601 362.076 290.795L384.526 299.804C382.426 312.766 378.886 325.555 373.894 337.928L350.021 334.006C346.708 341.465 342.769 348.727 338.206 355.719L354.522 373.565C350.766 378.919 346.688 384.127 342.267 389.15C337.847 394.175 333.2 398.879 328.366 403.289L308.561 389.407C302.203 394.822 295.5 399.658 288.519 403.895L295.47 427.05C283.828 433.582 271.583 438.726 258.989 442.469L247.175 421.375C239.174 423.46 231.031 424.891 222.831 425.686L219.037 449.573C215.284 449.81 211.525 449.928 207.765 449.928C198.311 449.928 188.847 449.184 179.468 447.691L177.981 423.561C169.919 421.998 161.949 419.788 154.152 416.928L140.363 436.801C128.277 431.893 116.598 425.598 105.556 417.906L114.694 395.522C111.419 393.072 108.215 390.48 105.088 387.735C101.962 384.99 98.9778 382.144 96.1257 379.213L75.0776 391.136C66.027 381.179 58.2839 370.411 51.8651 359.066L69.8241 342.859C65.9864 335.498 62.7753 327.883 60.1875 320.096L36.0468 321.714C32.2972 308.992 29.977 295.915 29.1098 282.744L52.3325 275.924C52.0717 267.697 52.4511 259.443 53.4943 251.249L31.0439 242.24C33.144 229.278 36.6836 216.489 41.6764 204.116L65.5494 208.038C68.8621 200.579 72.8014 193.317 77.364 186.325L61.0478 168.479C64.8042 163.125 68.8824 157.917 73.3027 152.895C77.723 147.869 82.3703 143.165 87.2038 138.755L107.009 152.637C113.367 147.222 120.07 142.386 127.051 138.149L120.1 114.994C131.742 108.462 143.987 103.318 156.581 99.5748L168.395 120.669C176.396 118.584 184.539 117.153 192.739 116.358L196.536 92.4712C200.289 92.2343 204.049 92.1158 207.809 92.1158M207.805 81.9629C203.849 81.9629 199.839 82.0881 195.893 82.3385C191.147 82.6364 187.242 86.1865 186.496 90.8805L183.902 107.2C180.42 107.704 176.951 108.316 173.523 109.037L165.445 94.6168C163.612 91.3476 160.181 89.4219 156.577 89.4219C155.615 89.4219 154.64 89.5573 153.681 89.8449C140.268 93.8283 127.295 99.3142 115.121 106.144C110.972 108.472 108.997 113.362 110.362 117.914L115.114 133.743C112.205 135.709 109.349 137.773 106.562 139.926L93.04 130.446C91.2786 129.211 89.2395 128.605 87.2072 128.605C84.7379 128.605 82.2822 129.502 80.3549 131.262C75.1725 135.99 70.2339 141.016 65.6747 146.197C61.1156 151.378 56.7596 156.918 52.7322 162.658C49.9988 166.554 50.3375 171.823 53.5485 175.336L64.6891 187.523C62.9074 190.562 61.224 193.655 59.6455 196.792L43.326 194.112C42.7705 194.021 42.2183 193.977 41.673 193.977C37.5846 193.977 33.8215 196.447 32.2532 200.336C27.0335 213.274 23.25 226.831 21.0144 240.633C20.2557 245.32 22.8469 249.909 27.257 251.679L42.6079 257.838C42.3335 261.331 42.1675 264.844 42.1133 268.36L26.2443 273.02C21.6817 274.361 18.6569 278.686 18.9685 283.427C19.8831 297.347 22.349 311.199 26.2951 324.597C27.5754 328.939 31.5622 331.884 36.0367 331.884C36.2636 331.884 36.4906 331.877 36.7209 331.86L53.2098 330.757C54.4766 334.039 55.8518 337.282 57.3219 340.473L45.0467 351.553C41.5172 354.738 40.6704 359.946 43.0109 364.082C49.8768 376.218 58.1314 387.623 67.5445 397.983C69.526 400.162 72.2798 401.309 75.0709 401.309C76.7814 401.309 78.5089 400.88 80.0772 399.989L94.4626 391.84C95.7498 393.048 97.0538 394.229 98.3647 395.38C99.6755 396.531 101.017 397.671 102.379 398.795L96.1325 414.095C94.3373 418.491 95.8311 423.544 99.7297 426.258C111.219 434.262 123.599 440.98 136.522 446.229C137.765 446.733 139.062 446.977 140.342 446.977C143.597 446.977 146.751 445.41 148.695 442.608L158.122 429.027C161.479 430.076 164.872 431.023 168.294 431.859L169.31 448.341C169.601 453.089 173.154 456.998 177.856 457.743C187.716 459.31 197.772 460.105 207.748 460.105C211.704 460.105 215.714 459.98 219.661 459.729C224.406 459.431 228.311 455.881 229.057 451.187L231.651 434.868C235.133 434.364 238.602 433.751 242.03 433.03L250.108 447.451C251.941 450.72 255.372 452.646 258.976 452.646C259.938 452.646 260.913 452.51 261.872 452.223C275.285 448.24 288.258 442.753 300.432 435.924C304.581 433.596 306.556 428.709 305.191 424.153L300.439 408.325C303.348 406.359 306.204 404.294 308.991 402.142L322.513 411.621C324.274 412.857 326.314 413.462 328.346 413.462C330.815 413.462 333.271 412.566 335.198 410.806C340.381 406.078 345.319 401.052 349.878 395.871C354.438 390.689 358.793 385.149 362.821 379.409C365.554 375.514 365.216 370.245 362.005 366.732L350.864 354.545C352.646 351.506 354.329 348.413 355.908 345.275L372.227 347.956C372.783 348.047 373.335 348.091 373.88 348.091C377.968 348.091 381.732 345.621 383.3 341.732C388.52 328.794 392.303 315.236 394.539 301.435C395.297 296.748 392.706 292.159 388.296 290.389L372.945 284.229C373.22 280.737 373.386 277.227 373.44 273.707L389.309 269.047C393.871 267.707 396.896 263.382 396.585 258.641C395.67 244.721 393.204 230.869 389.258 217.47C387.978 213.128 383.991 210.184 379.516 210.184C379.289 210.184 379.063 210.191 378.832 210.208L362.343 211.311C361.076 208.028 359.701 204.786 358.231 201.595L370.506 190.514C374.036 187.33 374.883 182.121 372.542 177.986C365.676 165.85 357.422 154.445 348.009 144.085C346.027 141.906 343.273 140.758 340.482 140.758C338.772 140.758 337.044 141.188 335.476 142.078L321.09 150.228C319.803 149.023 318.499 147.838 317.188 146.688C315.878 145.537 314.536 144.397 313.175 143.273L319.421 127.973C321.216 123.576 319.722 118.524 315.823 115.809C304.334 107.805 291.957 101.088 279.032 95.8385C277.788 95.3343 276.491 95.0906 275.207 95.0906C271.952 95.0906 268.799 96.6575 266.855 99.4597L257.428 113.041C254.071 111.992 250.677 111.044 247.256 110.208L246.24 93.7267C245.949 88.9785 242.396 85.0697 237.694 84.3251C227.834 82.7582 217.777 81.9629 207.799 81.9629H207.805Z" fill="#00AE5D"/>
<path d="M198.175 454.775C191.567 454.44 184.976 453.749 178.442 452.71C175.925 452.307 174.021 450.216 173.866 447.674L172.636 427.69C167.044 426.451 161.506 424.908 156.093 423.087L144.668 439.552C143.215 441.643 140.505 442.449 138.147 441.491C125.547 436.374 113.478 429.822 102.277 422.021C100.19 420.566 99.3876 417.862 100.35 415.506L107.923 396.957C105.667 395.177 103.459 393.339 101.328 391.468C99.1979 389.596 97.0944 387.643 95.0384 385.637L77.5977 395.515C75.3825 396.768 72.5948 396.321 70.8842 394.439C61.7049 384.34 53.6569 373.22 46.9638 361.388C45.7105 359.171 46.1644 356.383 48.0545 354.677L62.9345 341.248C60.4313 336.114 58.1924 330.824 56.2447 325.443L36.25 326.784C33.6995 326.97 31.386 325.338 30.6645 322.895C26.8133 309.825 24.4118 296.318 23.5175 282.747C23.3516 280.205 24.9706 277.89 27.4128 277.173L46.6522 271.525C46.6183 265.795 46.8893 260.062 47.4583 254.4L28.8558 246.938C26.4949 245.99 25.1027 243.533 25.5126 241.022C27.694 227.566 31.3826 214.347 36.4702 201.733C37.422 199.371 39.8845 197.984 42.4012 198.4L62.1825 201.649C64.6348 196.505 67.3785 191.459 70.3863 186.572L56.8748 171.792C55.1541 169.911 54.9745 167.088 56.4378 165.004C60.367 159.406 64.6145 154.005 69.0619 148.948C73.5093 143.896 78.3259 138.995 83.383 134.382C85.2663 132.667 88.0913 132.484 90.1778 133.946L106.579 145.442C111.043 141.838 115.7 138.471 120.493 135.381L114.735 116.195C114.003 113.755 115.06 111.139 117.286 109.89C129.158 103.23 141.806 97.8826 154.88 94.0008C157.319 93.2766 159.937 94.3359 161.18 96.5594L170.969 114.039C176.514 112.753 182.171 111.752 187.865 111.048L191.008 91.2596C191.408 88.745 193.498 86.8464 196.042 86.684C209.628 85.8311 223.346 86.4843 236.81 88.6232C239.327 89.0259 241.23 91.1174 241.386 93.659L242.616 113.643C248.208 114.882 253.746 116.425 259.159 118.249L270.584 101.785C272.037 99.6932 274.747 98.8878 277.104 99.8455C289.701 104.959 301.77 111.511 312.975 119.315C315.061 120.771 315.864 123.475 314.902 125.83L307.328 144.376C309.584 146.156 311.793 147.994 313.923 149.866C316.057 151.74 318.164 153.693 320.213 155.697L337.654 145.818C339.869 144.566 342.657 145.012 344.367 146.894C353.547 156.996 361.595 168.117 368.288 179.945C369.541 182.162 369.087 184.951 367.197 186.656L352.317 200.085C354.82 205.219 357.063 210.509 359.007 215.89L379.002 214.55C381.552 214.381 383.869 215.998 384.587 218.442C388.435 231.512 390.84 245.019 391.734 258.59C391.9 261.131 390.284 263.446 387.839 264.164L368.599 269.816C368.633 275.545 368.362 281.278 367.793 286.94L386.399 294.402C388.764 295.35 390.149 297.807 389.742 300.318C387.561 313.778 383.872 326.993 378.785 339.607C377.83 341.966 375.357 343.35 372.854 342.94L353.076 339.691C350.624 344.839 347.876 349.885 344.872 354.768L358.384 369.548C360.104 371.429 360.284 374.252 358.821 376.337C354.888 381.938 350.64 387.339 346.196 392.392C341.752 397.444 336.936 402.345 331.879 406.958C329.995 408.677 327.171 408.856 325.084 407.394L308.683 395.898C304.222 399.502 299.565 402.869 294.768 405.956L300.527 425.142C301.258 427.582 300.202 430.198 297.976 431.447C286.104 438.107 273.456 443.454 260.382 447.336C257.943 448.06 255.324 446.997 254.081 444.777L244.292 427.297C238.744 428.587 233.087 429.589 227.397 430.289L224.254 450.077C223.854 452.592 221.764 454.49 219.22 454.653C212.226 455.093 205.197 455.133 198.186 454.775H198.175ZM184.457 442.598C194.304 443.911 204.266 444.385 214.183 444.012L217.286 424.482C217.676 422.035 219.671 420.16 222.137 419.923C230.083 419.155 237.989 417.754 245.63 415.764C248.025 415.138 250.545 416.21 251.754 418.37L261.415 435.619C270.865 432.55 280.048 428.671 288.821 424.038L283.14 405.11C282.429 402.737 283.411 400.186 285.528 398.9C292.286 394.798 298.792 390.094 304.862 384.923C306.752 383.312 309.489 383.186 311.522 384.608L327.709 395.955C331.316 392.5 334.771 388.899 338.016 385.214C341.261 381.528 344.391 377.643 347.362 373.626L334.026 359.039C332.353 357.208 332.129 354.481 333.484 352.403C337.84 345.722 341.675 338.676 344.882 331.45C345.888 329.19 348.3 327.89 350.742 328.29L370.259 331.498C373.731 322.218 376.41 312.617 378.246 302.86L359.888 295.496C357.591 294.575 356.202 292.216 356.517 289.763C357.513 281.938 357.892 273.927 357.638 265.947C357.561 263.473 359.166 261.257 361.544 260.559L380.533 254.982C379.635 245.11 377.887 235.299 375.323 225.708L355.593 227.031C353.11 227.194 350.844 225.671 350.061 223.319C347.555 215.775 344.428 208.384 340.763 201.354C339.618 199.158 340.103 196.467 341.942 194.806L356.626 181.556C351.531 173.062 345.688 164.987 339.188 157.467L321.975 167.217C319.82 168.435 317.114 168.049 315.386 166.276C312.612 163.423 309.703 160.655 306.735 158.049C303.778 155.45 300.659 152.922 297.461 150.529C295.48 149.047 294.748 146.414 295.683 144.122L303.159 125.817C294.86 120.338 286.097 115.583 277.013 111.623L265.74 127.871C264.328 129.905 261.719 130.731 259.392 129.878C251.951 127.147 244.214 124.994 236.4 123.478C233.965 123.004 232.159 120.947 232.007 118.473L230.791 98.749C220.944 97.4325 210.979 96.9587 201.065 97.3344L197.962 116.865C197.573 119.312 195.581 121.184 193.112 121.424C185.158 122.195 177.253 123.597 169.615 125.583C167.22 126.206 164.7 125.136 163.49 122.977L153.83 105.727C144.38 108.797 135.197 112.675 126.424 117.309L132.105 136.237C132.816 138.609 131.834 141.161 129.717 142.447C122.963 146.546 116.456 151.25 110.379 156.424C108.489 158.032 105.752 158.16 103.723 156.739L87.5358 145.395C83.9284 148.85 80.4734 152.451 77.2285 156.137C73.9835 159.822 70.8538 163.707 67.8832 167.725L81.2186 182.311C82.8919 184.142 83.1154 186.87 81.7606 188.948C77.4012 195.632 73.5669 202.678 70.3626 209.896C69.3566 212.16 66.9449 213.46 64.5027 213.057L44.9857 209.849C41.5104 219.129 38.8345 228.73 36.9986 238.487L55.3573 245.851C57.6572 246.772 59.0426 249.131 58.7276 251.584C57.7283 259.412 57.3523 267.423 57.6064 275.4C57.6843 277.874 56.0788 280.09 53.7009 280.791L34.7123 286.365C35.6099 296.237 37.3577 306.048 39.9218 315.639L59.6556 314.316C62.1283 314.153 64.4045 315.676 65.187 318.028C67.6935 325.572 70.8199 332.963 74.4848 339.992C75.6297 342.189 75.1453 344.879 73.3061 346.541L58.6226 359.791C63.7169 368.285 69.5632 376.36 76.0599 383.88L93.2737 374.13C95.4279 372.908 98.1343 373.297 99.8618 375.071C102.643 377.931 105.556 380.699 108.513 383.298C111.47 385.897 114.589 388.425 117.787 390.818C119.768 392.3 120.5 394.933 119.565 397.224L112.09 415.53C120.385 421.006 129.151 425.764 138.235 429.724L149.508 413.479C150.921 411.445 153.529 410.62 155.856 411.472C163.297 414.203 171.034 416.356 178.848 417.872C181.283 418.346 183.092 420.404 183.241 422.878L184.457 442.601V442.598Z" fill="#00AE5D"/>
<path d="M122.431 460.915C116.618 460.915 110.88 459.5 105.83 456.82L105.654 456.728L105.481 456.627C88.2606 446.67 81.7707 424.733 91.0144 407.724L238.145 133.91C233.785 129.635 231.045 123.875 230.567 117.651L226.228 61.2857C225.686 54.2328 229.328 47.4405 235.503 43.9851L289.996 13.4959C292.712 11.9764 295.795 11.1709 298.911 11.1709C302.027 11.1709 304.835 11.9053 307.457 13.2962C311.789 15.5908 314.956 19.4421 316.372 24.1328C317.788 28.8268 317.28 33.7814 314.939 38.0897L291.463 81.2836L317.263 94.9528L340.909 51.4441C344.103 45.5656 350.248 41.9139 356.947 41.9139C359.911 41.9139 362.865 42.6483 365.49 44.0393C371.15 47.0378 374.757 52.5745 375.204 58.8862L379.581 120.433C380.082 127.486 376.404 134.255 370.212 137.676L320.03 165.387C316.26 167.468 311.986 168.572 307.677 168.572C305.902 168.572 304.124 168.382 302.383 168.013L155.104 442.111L154.989 442.304C148.19 453.784 135.715 460.915 122.434 460.915H122.431Z" fill="#00AE5D"/>
<path d="M298.911 22.0439C300.096 22.0439 301.278 22.3282 302.359 22.9001C305.973 24.8156 307.328 29.3066 305.377 32.9007L280.2 79.2251C278.249 82.8159 279.604 87.3102 283.218 89.2257L315.254 106.201C316.351 106.784 317.53 107.058 318.695 107.058C321.307 107.058 323.834 105.667 325.165 103.213L350.478 56.6349C351.809 54.1846 354.336 52.7903 356.947 52.7903C358.109 52.7903 359.288 53.0678 360.388 53.6499L360.456 53.6872C362.695 54.875 364.169 57.1324 364.348 59.6571L368.724 121.204C368.928 124.06 367.454 126.771 364.944 128.159L314.763 155.869C312.561 157.084 310.119 157.697 307.673 157.697C305.526 157.697 303.375 157.227 301.38 156.279L297.359 154.37L145.616 436.774C140.62 445.211 131.528 450.043 122.43 450.043C118.488 450.043 114.545 449.136 110.934 447.221C98.781 440.195 94.1303 424.79 100.583 412.918L252.33 130.508L248.611 128.325C244.475 125.898 241.789 121.6 241.42 116.821L237.081 60.4558C236.86 57.6028 238.32 54.8784 240.82 53.4807L295.313 22.9881C296.428 22.3654 297.668 22.0507 298.907 22.0507M298.911 0.292969C293.938 0.292969 289.02 1.57562 284.681 4.00217L230.188 34.4948C220.324 40.0146 214.512 50.8545 215.379 62.1175L219.718 118.483C220.178 124.446 222.092 130.112 225.188 135.039L81.4249 402.589C69.441 424.719 77.7803 453.174 100.038 466.041L100.383 466.241L100.735 466.427C107.351 469.936 114.853 471.791 122.441 471.791C139.553 471.791 155.615 462.616 164.364 447.844L164.594 447.454L164.808 447.055L308.608 179.434C314.441 179.285 320.193 177.725 325.304 174.906L375.485 147.196C385.376 141.733 391.249 130.927 390.45 119.664L386.074 58.1172C385.359 48.0421 379.597 39.2023 370.669 34.4711L370.638 34.4541C366.411 32.2137 361.696 31.0428 356.961 31.0428C346.271 31.0428 336.461 36.8739 331.36 46.2586L312.856 80.3047L306.291 76.8256L324.521 43.2872C328.261 36.4103 329.074 28.4944 326.811 21.0015C324.548 13.5087 319.495 7.3594 312.571 3.6942C308.381 1.47409 303.663 0.299737 298.924 0.299737L298.911 0.292969Z" fill="#1E2020"/>
<path d="M200.133 129.131L87.7729 193.958C83.3763 196.492 80.6699 201.18 80.6699 206.253V335.878C80.6699 340.952 83.3797 345.639 87.7729 348.174L200.133 413C204.53 415.538 209.949 415.538 214.346 413L326.706 348.174C331.103 345.639 333.809 340.952 333.809 335.878V206.253C333.809 201.18 331.1 196.492 326.706 193.958L214.346 129.131C209.949 126.593 204.53 126.593 200.133 129.131Z" fill="#1E2020"/>
<path d="M277.074 254.505H207.23C205.526 254.505 204.147 255.882 204.147 257.584V283.701C204.147 285.403 205.526 286.781 207.23 286.781H270.909C272.613 286.781 273.992 288.158 273.992 289.86V307.828C273.992 308.928 273.406 309.946 272.45 310.495L208.717 347.265C207.761 347.817 206.586 347.817 205.634 347.265L141.901 310.495C140.945 309.943 140.359 308.928 140.359 307.828V234.3C140.359 233.2 140.945 232.182 141.901 231.633L205.675 194.839C206.617 194.294 207.778 194.288 208.727 194.822L278.402 233.989C279.425 234.564 280.685 234.51 281.653 233.847L304.314 218.377L305.465 217.592C306.8 216.682 306.729 214.688 305.333 213.876L304.131 213.175L208.73 157.598C207.775 157.04 206.593 157.04 205.634 157.592L109.597 212.999C108.642 213.551 108.056 214.566 108.056 215.666V326.462C108.056 327.562 108.642 328.58 109.597 329.129L205.634 384.536C206.59 385.088 207.765 385.088 208.717 384.536L304.754 329.129C305.709 328.577 306.295 327.562 306.295 326.462V257.584C306.295 255.882 304.917 254.505 303.213 254.505H277.074Z" fill="#00AE5D"/>
<path d="M9.0811 575.625C6.36456 574.515 4.19336 572.867 2.57089 570.687C0.945031 568.508 0.0880674 565.881 0 562.812H12.1533C12.3294 564.548 12.9324 565.871 13.9553 566.782C14.9782 567.695 16.3128 568.149 17.9624 568.149C19.6119 568.149 20.9905 567.76 21.9694 566.981C22.9483 566.203 23.4395 565.123 23.4395 563.746C23.4395 562.588 23.0499 561.634 22.2709 560.876C21.4918 560.121 20.5332 559.499 19.3985 559.008C18.2638 558.517 16.6481 557.962 14.5582 557.339C11.5301 556.405 9.05739 555.471 7.14362 554.537C5.22985 553.603 3.58028 552.226 2.20168 550.402C0.819704 548.577 0.132101 546.198 0.132101 543.261C0.132101 538.902 1.71054 535.487 4.87419 533.02C8.03446 530.553 12.1533 529.317 17.2307 529.317C22.3081 529.317 26.5557 530.553 29.7194 533.02C32.8796 535.487 34.5732 538.925 34.7934 543.328H22.4369C22.3488 541.816 21.7899 540.624 20.767 539.758C19.7406 538.892 18.4298 538.458 16.8276 538.458C15.4457 538.458 14.3347 538.824 13.4879 539.558C12.6411 540.293 12.2177 541.349 12.2177 542.729C12.2177 544.242 12.929 545.42 14.355 546.266C15.781 547.112 18.0064 548.022 21.0346 549C24.0627 550.026 26.5218 551.004 28.4153 551.935C30.3053 552.869 31.9447 554.226 33.3233 556.006C34.7019 557.786 35.3929 560.077 35.3929 562.88C35.3929 565.682 34.7121 567.973 33.3572 570.152C31.9989 572.332 30.0276 574.068 27.4465 575.357C24.8655 576.647 21.8136 577.293 18.2977 577.293C14.7818 577.293 11.7976 576.738 9.0811 575.625Z" fill="#00AE5D"/>
<path d="M53.826 539.124V548.6H69.1192V557.41H53.826V567.685H71.121V576.826H42.4043V529.983H71.121V539.124H53.826Z" fill="#00AE5D"/>
<path d="M102.443 576.826L92.6913 559.143H89.9544V576.826H78.5361V529.983H97.701C101.396 529.983 104.546 530.63 107.151 531.919C109.756 533.209 111.704 534.979 112.994 537.222C114.285 539.47 114.932 541.971 114.932 544.729C114.932 547.842 114.051 550.624 112.293 553.071C110.535 555.518 107.94 557.254 104.513 558.276L115.331 576.826H102.443ZM89.9544 551.071H97.0337C99.127 551.071 100.695 550.56 101.742 549.538C102.789 548.516 103.31 547.071 103.31 545.199C103.31 543.328 102.785 542.018 101.742 540.996C100.695 539.974 99.127 539.463 97.0337 539.463H89.9544V551.074V551.071Z" fill="#00AE5D"/>
<path d="M166.088 529.983L149.46 576.826H135.17L118.542 529.983H130.695L142.317 565.349L154.003 529.983H166.092H166.088Z" fill="#00AE5D"/>
<path d="M182.249 529.983V576.826H170.83V529.983H182.249Z" fill="#00AE5D"/>
<path d="M191.597 540.962C193.603 537.338 196.394 534.512 199.977 532.488C203.561 530.464 207.626 529.452 212.165 529.452C217.73 529.452 222.492 530.921 226.455 533.855C230.418 536.789 233.067 540.793 234.402 545.866H221.845C220.91 543.91 219.586 542.421 217.872 541.395C216.158 540.373 214.21 539.859 212.029 539.859C208.513 539.859 205.661 541.084 203.48 543.528C201.298 545.974 200.208 549.244 200.208 553.335C200.208 557.427 201.298 560.699 203.48 563.143C205.661 565.59 208.51 566.812 212.029 566.812C214.21 566.812 216.158 566.3 217.872 565.275C219.586 564.253 220.91 562.764 221.845 560.804H234.402C233.067 565.874 230.415 569.868 226.455 572.781C222.492 575.695 217.73 577.151 212.165 577.151C207.622 577.151 203.561 576.139 199.977 574.115C196.394 572.091 193.599 569.279 191.597 565.674C189.592 562.07 188.593 557.958 188.593 553.328C188.593 548.699 189.596 544.577 191.597 540.952V540.962Z" fill="#00AE5D"/>
<path d="M252.838 539.124V548.6H268.131V557.41H252.838V567.685H270.133V576.826H241.417V529.983H270.133V539.124H252.838Z" fill="#00AE5D"/>
<path d="M332.309 529.983V576.826H320.89V557.542H303.124V576.826H291.706V529.983H303.124V548.333H320.89V529.983H332.309Z" fill="#00AE5D"/>
<path d="M351.741 529.983V558.009C351.741 560.811 352.432 562.97 353.811 564.48C355.189 565.992 357.215 566.747 359.887 566.747C362.56 566.747 364.606 565.992 366.032 564.48C367.458 562.967 368.169 560.811 368.169 558.009V529.983H379.587V557.941C379.587 562.124 378.697 565.661 376.915 568.551C375.133 571.445 372.742 573.621 369.737 575.089C366.733 576.558 363.383 577.293 359.688 577.293C355.992 577.293 352.686 576.572 349.77 575.123C346.854 573.678 344.55 571.499 342.857 568.585C341.163 565.671 340.32 562.124 340.32 557.941V529.983H351.738H351.741Z" fill="#00AE5D"/>
<path d="M422.531 556.843C424.177 558.958 425 561.371 425 564.082C425 567.997 423.631 571.101 420.891 573.389C418.154 575.68 414.334 576.824 409.439 576.824H387.602V529.981H408.704C413.466 529.981 417.196 531.071 419.892 533.251C422.585 535.43 423.933 538.388 423.933 542.124C423.933 544.883 423.208 547.174 421.762 548.998C420.315 550.822 418.388 552.091 415.987 552.802C418.703 553.381 420.884 554.727 422.531 556.839V556.843ZM399.023 548.937H406.502C408.372 548.937 409.808 548.527 410.811 547.702C411.814 546.879 412.315 545.668 412.315 544.064C412.315 542.459 411.814 541.241 410.811 540.395C409.808 539.549 408.372 539.126 406.502 539.126H399.023V548.934V548.937ZM411.878 566.319C412.925 565.452 413.446 564.193 413.446 562.549C413.446 560.904 412.901 559.614 411.81 558.68C410.719 557.746 409.216 557.279 407.302 557.279H399.02V567.622H407.434C409.348 567.622 410.828 567.188 411.875 566.322L411.878 566.319Z" fill="#00AE5D"/>
</g>
<defs>
<clipPath id="clip0_1100_21">
<rect width="425" height="577" fill="white" transform="translate(0 0.292969)"/>
</clipPath>
</defs>
</svg>
